<svg xmlns="http://www.w3.org/2000/svg" width="1645" height="700" viewBox="0 0 1645 700">
  <rect width="1645" height="700" fill="#0F172A"/>
  <path d="M0 0h1645v700H0z" fill="url(#grid)"/>
  <defs>
    <pattern id="grid" width="42" height="42" patternUnits="userSpaceOnUse">
      <path d="M42 0H0v42" fill="none" stroke="#1E3A8A" stroke-width="1" opacity=".35"/>
    </pattern>
  </defs>
  <rect x="76" y="72" width="1493" height="556" rx="24" fill="#111827" stroke="#3B82F6" stroke-width="3"/>
  <text x="130" y="185" fill="#FFFFFF" font-family="PingFang SC, Noto Sans SC, sans-serif" font-size="68" font-weight="700">不是你写了什么 Prompt</text>
  <text x="134" y="255" fill="#22D3EE" font-family="PingFang SC, Noto Sans SC, sans-serif" font-size="38" font-weight="600">而是模型最后看到了什么上下文</text>
  <g font-family="PingFang SC, Noto Sans SC, sans-serif" font-weight="700" font-size="34">
    <rect x="142" y="374" width="310" height="118" rx="18" fill="#1D4ED8"/>
    <text x="188" y="446" fill="#fff">系统提示词</text>
    <rect x="514" y="374" width="310" height="118" rx="18" fill="#0E7490"/>
    <text x="573" y="446" fill="#fff">Skill 召回</text>
    <rect x="886" y="374" width="310" height="118" rx="18" fill="#7C3AED"/>
    <text x="929" y="446" fill="#fff">上下文压缩</text>
  </g>
  <path d="M452 433h62M824 433h62M1196 433h178" stroke="#94A3B8" stroke-width="8" stroke-linecap="round"/>
  <rect x="1374" y="330" width="124" height="206" rx="18" fill="#F8FAFC"/>
  <text x="1407" y="414" fill="#0F172A" font-family="PingFang SC, Noto Sans SC, sans-serif" font-size="28" font-weight="700">最终</text>
  <text x="1407" y="458" fill="#0F172A" font-family="PingFang SC, Noto Sans SC, sans-serif" font-size="28" font-weight="700">输入</text>
</svg>
